# xmcd
# 
# Track frame offsets:
#     150
#     21825
#     42910
#     70398
#     91650
#     119285
#     136983
#     156875
#     176128
#     197553
#     216455
#     239098
#     262388
#     290378
#     309785
# 
# Disc length: 4598
# 
# Revision: 5
# Processed by: cddbd v1.5.2PL0 Copyright (c) Steve Scherf et al.
# Submitted via: BonkEnc v1.0.8
# 
DISCID=e111f40f
DTITLE=佐藤竹善 - Cornerstones 2
DYEAR=2002
DGENRE=
TTITLE0=Eye In The Sky
TTITLE1=Last Train To London
TTITLE2=Believe In Life
TTITLE3=Love's In Need Of Love Today
TTITLE4=Amanogawa -Album Version-
TTITLE5=Change The World
TTITLE6=生まれ来る子供たちのために
TTITLE7=Take Good Care Of My Heart
TTITLE8=One Of These Nights
TTITLE9=I Keep Forgettin'
TTITLE10=Kiss On My List
TTITLE11=ワインレッドの心
TTITLE12=Hotel California
TTITLE13=The Chrisamas Song
TTITLE14=Spain (I Can Recall)
EXTD=
EXTT0=
EXTT1=
EXTT2=
EXTT3=
EXTT4=
EXTT5=
EXTT6=
EXTT7=
EXTT8=
EXTT9=
EXTT10=
EXTT11=
EXTT12=
EXTT13=
EXTT14=
PLAYORDER=
